<?xml version="1.0" encoding="UTF-8" standalone="no"?>
<!-- Created with Inkscape (http://www.inkscape.org/) -->

<svg
   xmlns:dc="http://purl.org/dc/elements/1.1/"
   xmlns:cc="http://creativecommons.org/ns#"
   xmlns:rdf="http://www.w3.org/1999/02/22-rdf-syntax-ns#"
   xmlns:svg="http://www.w3.org/2000/svg"
   xmlns="http://www.w3.org/2000/svg"
   xmlns:sodipodi="http://sodipodi.sourceforge.net/DTD/sodipodi-0.dtd"
   xmlns:inkscape="http://www.inkscape.org/namespaces/inkscape"
   width="60"
   height="75"
   viewBox="0 0 60.000003 75.000001"
   id="svg4208"
   version="1.1"
   inkscape:version="0.91 r13725"
   sodipodi:docname="Soldier with rifle 1.svg">
  <defs
     id="defs4210" />
  <sodipodi:namedview
     id="base"
     pagecolor="#ffffff"
     bordercolor="#666666"
     borderopacity="1.0"
     inkscape:pageopacity="0.0"
     inkscape:pageshadow="2"
     inkscape:zoom="1.4"
     inkscape:cx="160.5941"
     inkscape:cy="11.664445"
     inkscape:document-units="px"
     inkscape:current-layer="layer1"
     showgrid="true"
     inkscape:window-width="1280"
     inkscape:window-height="657"
     inkscape:window-x="-8"
     inkscape:window-y="-8"
     inkscape:window-maximized="1"
     units="px">
    <inkscape:grid
       type="xygrid"
       id="grid4760" />
  </sodipodi:namedview>
  <metadata
     id="metadata4213">
    <rdf:RDF>
      <cc:Work
         rdf:about="">
        <dc:format>image/svg+xml</dc:format>
        <dc:type
           rdf:resource="http://purl.org/dc/dcmitype/StillImage" />
        <dc:title></dc:title>
      </cc:Work>
    </rdf:RDF>
  </metadata>
  <g
     inkscape:label="Layer 1"
     inkscape:groupmode="layer"
     id="layer1"
     transform="translate(0,-977.36216)">
    <g
       id="g3803"
       transform="translate(-45,185)">
      <rect
         y="812.72986"
         x="55.090263"
         height="10"
         width="40"
         id="rect4762"
         style="fill:#efd0cf;fill-opacity:1;stroke:none" />
      <rect
         y="822.72986"
         x="60.090263"
         height="5"
         width="30"
         id="rect4764"
         style="fill:#efd0cf;fill-opacity:1;stroke:none" />
      <rect
         y="812.72986"
         x="60.090263"
         height="5"
         width="5"
         id="rect4766"
         style="fill:#ffffff;fill-opacity:1;stroke:none" />
      <rect
         y="812.72986"
         x="85.090263"
         height="5"
         width="5"
         id="rect4768"
         style="fill:#ffffff;fill-opacity:1;stroke:none" />
      <rect
         y="812.72986"
         x="65.090263"
         height="5"
         width="5"
         id="rect4770"
         style="fill:#550000;fill-opacity:1;stroke:none" />
      <rect
         y="812.72986"
         x="80.090263"
         height="5"
         width="5"
         id="rect4772"
         style="fill:#550000;fill-opacity:1;stroke:none" />
      <rect
         y="807.72986"
         x="60.090263"
         height="5"
         width="5"
         id="rect4774"
         style="fill:#efd0cf;fill-opacity:1;stroke:none" />
      <rect
         y="807.72986"
         x="85.090263"
         height="5"
         width="5"
         id="rect4776"
         style="fill:#efd0cf;fill-opacity:1;stroke:none" />
      <rect
         y="807.72986"
         x="70.090263"
         height="5"
         width="10"
         id="rect4778"
         style="fill:#efd0cf;fill-opacity:1;stroke:none" />
      <rect
         y="802.72986"
         x="55.090263"
         height="10"
         width="5"
         id="rect4784"
         style="fill:#ff6600;fill-opacity:1;stroke:none" />
      <rect
         y="802.72986"
         x="60.090263"
         height="5"
         width="35"
         id="rect4786"
         style="fill:#ff6600;fill-opacity:1;stroke:none" />
      <rect
         y="807.72986"
         x="90.090263"
         height="5"
         width="5"
         id="rect4788"
         style="fill:#ff6600;fill-opacity:1;stroke:none" />
      <rect
         y="807.72986"
         x="65.090263"
         height="5"
         width="5"
         id="rect4790"
         style="fill:#ff6600;fill-opacity:1;stroke:none" />
      <rect
         y="807.72986"
         x="80.090263"
         height="5"
         width="5"
         id="rect4792"
         style="fill:#ff6600;fill-opacity:1;stroke:none" />
      <rect
         y="802.72986"
         x="65.090263"
         height="10"
         width="5"
         id="rect4794"
         style="fill:#ff6600;fill-opacity:1;stroke:none" />
      <rect
         y="802.72986"
         x="80.090263"
         height="10"
         width="5"
         id="rect4796"
         style="fill:#ff6600;fill-opacity:1;stroke:none" />
      <rect
         y="807.72986"
         x="90.090263"
         height="5"
         width="5"
         id="rect4798"
         style="fill:#ff6600;fill-opacity:1;stroke:none" />
      <rect
         y="802.72986"
         x="85.090263"
         height="5"
         width="5"
         id="rect4800"
         style="fill:#ff6600;fill-opacity:1;stroke:none" />
      <rect
         y="802.72986"
         x="60.090263"
         height="5"
         width="5"
         id="rect4802"
         style="fill:#ff6600;fill-opacity:1;stroke:none" />
      <rect
         y="822.72986"
         x="70.090263"
         height="5"
         width="10"
         id="rect4810"
         style="fill:#ff8080;fill-opacity:1;stroke:none" />
      <rect
         y="827.72986"
         x="70.090263"
         height="5"
         width="10"
         id="rect4812"
         style="fill:#efd0cf;fill-opacity:1;stroke:none" />
      <rect
         y="827.72986"
         x="70.090263"
         height="5"
         width="10"
         id="rect4814"
         style="fill:#efd0cf;fill-opacity:1;stroke:none" />
      <rect
         y="832.72986"
         x="65.090263"
         height="15"
         width="20"
         id="rect4816"
         style="fill:#efd0cf;fill-opacity:1;stroke:none" />
      <rect
         y="837.72986"
         x="85.090263"
         height="5"
         width="10"
         id="rect4818"
         style="fill:#efd0cf;fill-opacity:1;stroke:none" />
      <rect
         y="842.72986"
         x="90.090263"
         height="5"
         width="4.9492373"
         id="rect4820"
         style="fill:#efd0cf;fill-opacity:1;stroke:none" />
      <rect
         y="837.72986"
         x="55.090263"
         height="5"
         width="10"
         id="rect4822"
         style="fill:#efd0cf;fill-opacity:1;stroke:none" />
      <rect
         y="842.72986"
         x="54.888496"
         height="5"
         width="5.2017756"
         id="rect4824"
         style="fill:#efd0cf;fill-opacity:1;stroke:none" />
      <rect
         y="847.72986"
         x="65.090263"
         height="5.2017756"
         width="20"
         id="rect4830"
         style="fill:#efd0cf;fill-opacity:1;stroke:none" />
      <rect
         y="852.67908"
         x="65.090263"
         height="10.050763"
         width="5"
         id="rect4832"
         style="fill:#efd0cf;fill-opacity:1;stroke:none" />
      <rect
         y="852.93164"
         x="80.090263"
         height="9.7982244"
         width="5"
         id="rect4834"
         style="fill:#efd0cf;fill-opacity:1;stroke:none" />
      <rect
         y="842.72986"
         x="65.090263"
         height="15"
         width="20"
         id="rect4838"
         style="fill:#666666;fill-opacity:1;stroke:none" />
      <rect
         y="852.72986"
         x="85.090263"
         height="5"
         width="5"
         id="rect4840"
         style="fill:#666666;fill-opacity:1;stroke:none" />
      <rect
         y="852.72986"
         x="60.090263"
         height="5"
         width="5"
         id="rect4842"
         style="fill:#666666;fill-opacity:1;stroke:none" />
      <rect
         y="847.72986"
         x="60.090263"
         height="5"
         width="5"
         id="rect4846"
         style="fill:#666666;fill-opacity:1;stroke:none" />
      <rect
         y="847.72986"
         x="85.090263"
         height="5"
         width="5"
         id="rect4848"
         style="fill:#666666;fill-opacity:1;stroke:none" />
      <rect
         y="837.72986"
         x="65.090263"
         height="5"
         width="20"
         id="rect4850"
         style="fill:#666666;fill-opacity:1;stroke:none" />
      <rect
         y="832.72986"
         x="65.090263"
         height="5"
         width="20"
         id="rect4852"
         style="fill:#666666;fill-opacity:1;stroke:none" />
      <rect
         y="832.72986"
         x="70.090263"
         height="5"
         width="10"
         id="rect4854"
         style="fill:#b3b3b3;fill-opacity:1;stroke:none" />
      <rect
         y="837.72986"
         x="85.090263"
         height="5"
         width="10"
         id="rect4856"
         style="fill:#b3b3b3;fill-opacity:1;stroke:none" />
      <rect
         y="837.72986"
         x="55.090263"
         height="5"
         width="10"
         id="rect4858"
         style="fill:#b3b3b3;fill-opacity:1;stroke:none" />
      <rect
         y="857.72986"
         x="65.090263"
         height="10"
         width="5"
         id="rect4860"
         style="fill:#800000;fill-opacity:1;stroke:none" />
      <rect
         y="862.72986"
         x="60.090263"
         height="5"
         width="10"
         id="rect4862"
         style="fill:#800000;fill-opacity:1;stroke:none" />
      <rect
         y="857.72986"
         x="80.090263"
         height="10"
         width="5"
         id="rect4864"
         style="fill:#800000;fill-opacity:1;stroke:none" />
      <rect
         y="862.72986"
         x="80.090263"
         height="5"
         width="10"
         id="rect4866"
         style="fill:#800000;fill-opacity:1;stroke:none" />
      <rect
         y="842.72986"
         x="60.090263"
         height="5"
         width="5"
         id="rect4868"
         style="fill:#b3b3b3;fill-opacity:1;stroke:none" />
      <rect
         y="842.72986"
         x="85.090263"
         height="5"
         width="5"
         id="rect4870"
         style="fill:#b3b3b3;fill-opacity:1;stroke:none" />
      <rect
         y="832.72986"
         x="60.090263"
         height="5"
         width="5"
         id="rect4872"
         style="fill:#333333;fill-opacity:1;stroke:none" />
      <rect
         y="832.72986"
         x="85.090263"
         height="5"
         width="5"
         id="rect4874"
         style="fill:#333333;fill-opacity:1;stroke:none" />
      <rect
         y="842.72986"
         x="55.090263"
         height="5"
         width="5"
         id="rect4876"
         style="fill:#b3b3b3;fill-opacity:1;stroke:none" />
      <rect
         y="842.72986"
         x="90.090263"
         height="5"
         width="5"
         id="rect4878"
         style="fill:#b3b3b3;fill-opacity:1;stroke:none" />
      <path
         inkscape:connector-curvature="0"
         id="path7446"
         d="m 55.092715,842.81114 0,-4.91535 2.3798,-0.0723 c 1.30889,-0.0398 3.58173,-0.0366 5.05076,0.007 l 2.67097,0.0794 0,4.90825 0,4.90825 -5.05076,0 -5.05077,0 0,-4.91535 z m 8.64943,-0.0691 c -0.7292,-0.051 -1.92244,-0.051 -2.65165,0 -0.7292,0.051 -0.13258,0.0928 1.32583,0.0928 1.45841,0 2.05503,-0.0417 1.32582,-0.0928 z"
         style="fill:#e6e6e6;fill-opacity:1;stroke:none" />
      <path
         inkscape:connector-curvature="0"
         id="path7448"
         d="m 90.195515,845.2011 0,-2.52538 -2.52538,0 -2.52538,0 0,-2.39911 0,-2.39911 4.92449,0 4.9245,0 0,4.92449 0,4.9245 -2.39911,0 -2.39912,0 0,-2.52539 z"
         style="fill:#e6e6e6;fill-opacity:1;stroke:none" />
      <path
         inkscape:connector-curvature="0"
         id="path7450"
         d="m 70.245005,835.23108 0,-2.39389 -5.1139,-0.0739 c -2.81264,-0.0406 0.51139,-0.076 7.38674,-0.0786 6.87535,-0.003 11.39263,0.0324 10.03839,0.0778 l -2.46224,0.0826 0,2.38996 0,2.38997 -4.9245,0 -4.92449,0 0,-2.39388 z"
         style="fill:#e6e6e6;fill-opacity:1;stroke:none" />
      <path
         inkscape:connector-curvature="0"
         id="path7452"
         d="m 85.144755,845.32737 0,-2.39911 2.39911,0 2.39912,0 0,2.39911 0,2.39912 -2.39912,0 -2.39911,0 0,-2.39912 z"
         style="fill:#e6e6e6;fill-opacity:1;stroke:none" />
      <path
         inkscape:connector-curvature="0"
         id="path7454"
         d="m 65.194245,850.25187 0,-7.32361 9.84899,0 9.84898,0 0,7.32361 0,7.3236 -9.84898,0 -9.84899,0 0,-7.3236 z"
         style="fill:#803300;fill-opacity:1;stroke:none" />
      <path
         inkscape:connector-curvature="0"
         id="path7456"
         d="m 65.194245,840.27661 0,-2.39911 9.84899,0 9.84898,0 0,2.39911 0,2.39911 -9.84898,0 -9.84899,0 0,-2.39911 z"
         style="fill:#803300;fill-opacity:1;stroke:none" />
      <path
         inkscape:connector-curvature="0"
         id="path7458"
         d="m 60.143485,855.17636 0,-2.39911 2.39911,0 2.39911,0 0,2.39911 0,2.39911 -2.39911,0 -2.39911,0 0,-2.39911 z"
         style="fill:#803300;fill-opacity:1;stroke:none" />
      <path
         inkscape:connector-curvature="0"
         id="path7460"
         d="m 85.144755,855.17636 0,-2.39911 2.39911,0 2.39912,0 0,2.39911 0,2.39911 -2.39912,0 -2.39911,0 0,-2.39911 z"
         style="fill:#803300;fill-opacity:1;stroke:none" />
      <path
         inkscape:connector-curvature="0"
         id="path7462"
         d="m 85.144755,850.1256 0,-2.39911 2.39911,0 2.39912,0 0,2.39911 0,2.39911 -2.39912,0 -2.39911,0 0,-2.39911 z"
         style="fill:#803300;fill-opacity:1;stroke:none" />
      <path
         inkscape:connector-curvature="0"
         id="path7464"
         d="m 60.143485,850.1256 0,-2.39911 2.39911,0 2.39911,0 0,2.39911 0,2.39911 -2.39911,0 -2.39911,0 0,-2.39911 z"
         style="fill:#803300;fill-opacity:1;stroke:none" />
      <path
         inkscape:connector-curvature="0"
         id="path7466"
         d="m 64.941705,835.22585 0,-2.39911 2.52538,0 2.52538,0 0,2.39911 0,2.39911 -2.52538,0 -2.52538,0 0,-2.39911 z"
         style="fill:#803300;fill-opacity:1;stroke:none" />
      <path
         inkscape:connector-curvature="0"
         id="path7468"
         d="m 80.093995,835.22585 0,-2.39911 2.52538,0 2.52538,0 0,2.39911 0,2.39911 -2.52538,0 -2.52538,0 0,-2.39911 z"
         style="fill:#803300;fill-opacity:1;stroke:none" />
      <path
         inkscape:connector-curvature="0"
         id="path7470"
         d="m 85.144755,835.22585 0,-2.39911 2.39911,0 2.39912,0 0,2.39911 0,2.39911 -2.39912,0 -2.39911,0 0,-2.39911 z"
         style="fill:#803300;fill-opacity:1;stroke:none" />
      <path
         inkscape:connector-curvature="0"
         id="path7472"
         d="m 60.143485,835.22585 0,-2.39911 2.39911,0 2.39911,0 0,2.39911 0,2.39911 -2.39911,0 -2.39911,0 0,-2.39911 z"
         style="fill:#803300;fill-opacity:1;stroke:none" />
      <path
         inkscape:connector-curvature="0"
         id="path7474"
         d="m 60.143485,865.27789 0,-2.39912 2.52538,0 2.52538,0 0,-2.52538 0,-2.52538 2.39911,0 2.39911,0 0,4.92449 0,4.9245 -4.92449,0 -4.92449,0 0,-2.39911 z"
         style="fill:#550000;fill-opacity:1;stroke:none" />
      <path
         inkscape:connector-curvature="0"
         id="path7476"
         d="m 80.093995,862.7525 0,-4.92449 2.39911,0 2.39911,0 0,2.52538 0,2.52538 2.52538,0 2.52539,0 0,2.39912 0,2.39911 -4.9245,0 -4.92449,0 0,-4.9245 z"
         style="fill:#550000;fill-opacity:1;stroke:none" />
      <rect
         y="797.72986"
         x="60.090263"
         height="5"
         width="30"
         id="rect7478"
         style="fill:#550000;fill-opacity:1;stroke:none" />
      <rect
         y="802.72986"
         x="90.090263"
         height="10"
         width="5"
         id="rect7480"
         style="fill:#550000;fill-opacity:1;stroke:none" />
      <rect
         y="807.72986"
         x="95.090263"
         height="10"
         width="5"
         id="rect7482"
         style="fill:#550000;fill-opacity:1;stroke:none" />
      <rect
         y="807.72986"
         x="50.090263"
         height="10"
         width="5"
         id="rect7484"
         style="fill:#550000;fill-opacity:1;stroke:none" />
      <rect
         y="802.72986"
         x="55.090263"
         height="10"
         width="5"
         id="rect7486"
         style="fill:#550000;fill-opacity:1;stroke:none" />
      <rect
         y="802.72986"
         x="60.090263"
         height="5"
         width="30"
         id="rect7488"
         style="fill:#550000;fill-opacity:1;stroke:none" />
      <rect
         y="797.72986"
         x="55.090263"
         height="5"
         width="40"
         id="rect7492"
         style="fill:#550000;fill-opacity:1;stroke:none" />
      <rect
         y="802.72986"
         x="50.090263"
         height="5"
         width="50"
         id="rect7494"
         style="fill:#550000;fill-opacity:1;stroke:none" />
      <rect
         y="792.72986"
         x="60.090263"
         height="5"
         width="30"
         id="rect7496"
         style="fill:#550000;fill-opacity:1;stroke:none" />
      <path
         inkscape:connector-curvature="0"
         id="path7500"
         d="m 50.294495,812.7591 0,-4.91535 2.46224,-0.0826 2.46225,-0.0826 -2.46225,-0.0528 -2.46224,-0.0529 0,-2.39911 0,-2.39911 4.98763,-0.0533 c 2.75322,-0.0294 3.828,-0.0899 2.39911,-0.13511 l -2.58852,-0.0818 0,-2.39028 0,-2.39027 2.52538,0 2.52539,0 0,-2.39912 0,-2.39911 14.89975,0 14.89975,0 0,2.39911 0,2.39912 2.52538,0 2.52538,0 0,2.38996 0,2.38997 -2.46225,0.0826 c -1.35423,0.0454 -0.21781,0.10634 2.52538,0.13541 l 4.987635,0.0529 0,2.39911 0,2.39911 -2.525385,0 -2.52538,0 0,2.52538 0,2.52539 -2.39911,0 -2.39912,0 0,-2.52737 0,-2.52737 -15.08915,0.0651 -15.08915,0.0651 -0.0723,2.46225 -0.0723,2.46225 -2.38997,0 -2.38997,0 0,2.52538 0,2.52538 -2.39911,0 -2.39911,0 0,-4.91535 z"
         style="fill:#00ff00;fill-opacity:1;stroke:none" />
      <path
         inkscape:connector-curvature="0"
         id="path7502"
         d="m 95.246285,812.74995 0,-4.92449 2.39911,0 2.399115,0 0,4.92449 0,4.9245 -2.399115,0 -2.39911,0 0,-4.9245 z"
         style="fill:#00ff00;fill-opacity:1;stroke:none" />
      <path
         inkscape:connector-curvature="0"
         id="path7504"
         d="m 95.246285,812.74995 0,-4.92449 2.39911,0 2.399115,0 0,4.92449 0,4.9245 -2.399115,0 -2.39911,0 0,-4.9245 z"
         style="fill:#00ff00;fill-opacity:1;stroke:none" />
      <path
         inkscape:connector-curvature="0"
         id="path7506"
         d="m 95.246285,812.74995 0,-4.92449 2.39911,0 2.399115,0 0,4.92449 0,4.9245 -2.399115,0 -2.39911,0 0,-4.9245 z"
         style="fill:#00ff00;fill-opacity:1;stroke:none" />
      <path
         inkscape:connector-curvature="0"
         id="path7508"
         d="m 95.246285,812.74995 0,-4.92449 2.39911,0 2.399115,0 0,4.92449 0,4.9245 -2.399115,0 -2.39911,0 0,-4.9245 z"
         style="fill:#00ff00;fill-opacity:1;stroke:none" />
      <path
         inkscape:connector-curvature="0"
         id="path7512"
         d="m 55.046355,845.15526 c -0.044,-1.41417 -0.0474,-3.63019 -0.008,-4.92449 l 0.0723,-2.35327 5.04162,0 5.04162,0 0,4.92449 0,4.9245 -5.03399,0 -5.03399,0 -0.0799,-2.57123 z m 8.06445,-2.40788 c -0.38197,-0.0579 -1.007,-0.0579 -1.38896,0 -0.38197,0.0579 -0.0695,0.1052 0.69448,0.1052 0.76393,0 1.07644,-0.0473 0.69448,-0.1052 z"
         style="fill:#008000;fill-opacity:1;stroke:none" />
      <path
         inkscape:connector-curvature="0"
         id="path7514"
         d="m 70.245005,835.22585 0,-2.39911 4.92449,0 4.9245,0 0,2.39911 0,2.39911 -4.9245,0 -4.92449,0 0,-2.39911 z"
         style="fill:#008000;fill-opacity:1;stroke:none" />
      <path
         inkscape:connector-curvature="0"
         id="path7516"
         d="m 90.195515,845.2011 0,-2.52538 -2.52538,0 -2.52538,0 0,-2.39911 0,-2.39911 4.88521,0 4.88521,0 0.16463,3.59867 c 0.0906,1.97926 0.16504,4.19529 0.16555,4.92449 l 9.3e-4,1.32583 -2.52539,0 -2.52538,0 0,-2.52539 z"
         style="fill:#008000;fill-opacity:1;stroke:none" />
      <path
         inkscape:connector-curvature="0"
         id="path7518"
         d="m 85.144755,845.32737 0,-2.39911 2.39911,0 2.39912,0 0,2.39911 0,2.39912 -2.39912,0 -2.39911,0 0,-2.39912 z"
         style="fill:#00ff00;fill-opacity:1;stroke:none" />
      <path
         inkscape:connector-curvature="0"
         id="path7520"
         d="m 65.194245,850.25187 0,-7.32361 9.84899,0 9.84898,0 0,7.32361 0,7.3236 -9.84898,0 -9.84899,0 0,-7.3236 z"
         style="fill:#00ff00;fill-opacity:1;stroke:none" />
      <path
         inkscape:connector-curvature="0"
         id="path7522"
         d="m 85.144755,855.17636 0,-2.39911 2.39911,0 2.39912,0 0,2.39911 0,2.39911 -2.39912,0 -2.39911,0 0,-2.39911 z"
         style="fill:#00ff00;fill-opacity:1;stroke:none" />
      <path
         inkscape:connector-curvature="0"
         id="path7524"
         d="m 84.997925,852.65098 c 0,-2.77792 0.0371,-3.94682 0.0824,-2.59755 l 0.0825,2.45321 2.45321,0.0824 2.45321,0.0824 -2.4531,0.0528 -2.4531,0.0529 -0.0826,2.46225 c -0.0454,1.35423 -0.0826,0.1894 -0.0826,-2.58852 z"
         style="fill:#00ff00;fill-opacity:1;stroke:none" />
      <path
         inkscape:connector-curvature="0"
         id="path7526"
         d="m 85.313115,852.35635 c -0.0926,-0.0926 -0.16836,-1.1722 -0.16836,-2.39911 l 0,-2.23075 2.39911,0 2.39912,0 0,2.39911 0,2.39911 -2.23076,0 c -1.22691,0 -2.30651,-0.0758 -2.39911,-0.16836 z"
         style="fill:#00ff00;fill-opacity:1;stroke:none" />
      <path
         inkscape:connector-curvature="0"
         id="path7528"
         d="m 65.194245,840.27661 0,-2.39911 9.84899,0 9.84898,0 0,2.39911 0,2.39911 -9.84898,0 -9.84899,0 0,-2.39911 z"
         style="fill:#00ff00;fill-opacity:1;stroke:none" />
      <path
         inkscape:connector-curvature="0"
         id="path7530"
         d="m 80.093995,835.22585 0,-2.39911 4.92449,0 4.9245,0 0,2.39911 0,2.39911 -4.9245,0 -4.92449,0 0,-2.39911 z"
         style="fill:#00ff00;fill-opacity:1;stroke:none" />
      <path
         inkscape:connector-curvature="0"
         id="path7532"
         d="m 60.143485,835.22585 0,-2.39911 4.92449,0 4.92449,0 0,2.39911 0,2.39911 -4.92449,0 -4.92449,0 0,-2.39911 z"
         style="fill:#00ff00;fill-opacity:1;stroke:none" />
      <path
         inkscape:connector-curvature="0"
         id="path7534"
         d="m 60.143485,855.17636 0,-2.39911 2.39911,0 2.39911,0 0,2.39911 0,2.39911 -2.39911,0 -2.39911,0 0,-2.39911 z"
         style="fill:#00ff00;fill-opacity:1;stroke:none" />
      <path
         inkscape:connector-curvature="0"
         id="path7536"
         d="m 60.143485,850.1256 0,-2.39911 2.39911,0 2.39911,0 0,2.39911 0,2.39911 -2.39911,0 -2.39911,0 0,-2.39911 z"
         style="fill:#00ff00;fill-opacity:1;stroke:none" />
      <path
         inkscape:connector-curvature="0"
         id="path7538"
         d="m 60.143485,855.17636 0,-2.39911 2.39911,0 2.39911,0 0,2.39911 0,2.39911 -2.39911,0 -2.39911,0 0,-2.39911 z"
         style="fill:#00ff00;fill-opacity:1;stroke:none" />
      <path
         inkscape:connector-curvature="0"
         id="path7540"
         d="m 65.194245,850.25187 0,-7.32361 9.84899,0 9.84898,0 0,7.32361 0,7.3236 -9.84898,0 -9.84899,0 0,-7.3236 z"
         style="fill:#00ff00;fill-opacity:1;stroke:none" />
      <path
         inkscape:connector-curvature="0"
         id="path7542"
         d="m 65.194245,850.25187 0,-7.32361 9.84899,0 9.84898,0 0,7.32361 0,7.3236 -9.84898,0 -9.84899,0 0,-7.3236 z"
         style="fill:#00ff00;fill-opacity:1;stroke:none" />
      <rect
         y="817.72986"
         x="55.090263"
         height="10"
         width="5"
         id="rect7544"
         style="fill:#800000;fill-opacity:1;stroke:none" />
      <rect
         y="827.72986"
         x="60.090263"
         height="5"
         width="30"
         id="rect7546"
         style="fill:#800000;fill-opacity:1;stroke:none" />
      <rect
         y="817.72986"
         x="90.090263"
         height="10"
         width="5"
         id="rect7548"
         style="fill:#800000;fill-opacity:1;stroke:none" />
      <rect
         y="832.36218"
         x="65"
         height="10"
         width="5"
         id="rect4239"
         style="fill:#2b0000;fill-opacity:1;stroke:none" />
      <rect
         y="832.36218"
         x="80"
         height="10"
         width="5"
         id="rect4241"
         style="fill:#2b0000;fill-opacity:1;stroke:none" />
      <rect
         y="842.36218"
         x="60"
         height="5"
         width="10"
         id="rect4243"
         style="fill:#803300;fill-opacity:1;stroke:none" />
      <rect
         y="842.36218"
         x="70"
         height="5"
         width="35"
         id="rect4247"
         style="fill:#4d4d4d;fill-opacity:1;stroke:none" />
      <rect
         y="837.36218"
         x="95"
         height="5"
         width="5"
         id="rect4249"
         style="fill:#4d4d4d;fill-opacity:1;stroke:none" />
      <rect
         y="842.37274"
         x="90.090263"
         height="5"
         width="5"
         id="rect4882"
         style="fill:#efd0cf;fill-opacity:1;stroke:none" />
      <rect
         y="842.37274"
         x="60.090263"
         height="5"
         width="5"
         id="rect4880"
         style="fill:#efd0cf;fill-opacity:1;stroke:none" />
      <rect
         y="837.36218"
         x="55"
         height="5"
         width="10"
         id="rect4251"
         style="fill:#800000;fill-opacity:1;stroke:none" />
      <rect
         y="837.36218"
         x="50"
         height="10"
         width="5"
         id="rect4253"
         style="fill:#800000;fill-opacity:1;stroke:none" />
      <rect
         y="847.36218"
         x="55"
         height="5"
         width="10"
         id="rect4259"
         style="fill:#333333;fill-opacity:1;stroke:none" />
      <rect
         y="842.36218"
         x="55"
         height="5"
         width="5"
         id="rect4261"
         style="fill:#333333;fill-opacity:1;stroke:none" />
      <rect
         y="837.36218"
         x="45"
         height="5"
         width="5"
         id="rect4263"
         style="fill:#800000;fill-opacity:1;stroke:none" />
      <rect
         y="847.36218"
         x="75"
         height="10"
         width="5"
         id="rect4265"
         style="fill:#333333;fill-opacity:1;stroke:none" />
      <rect
         y="847.36218"
         x="95"
         height="10"
         width="5"
         id="rect4267"
         style="fill:#333333;fill-opacity:1;stroke:none" />
    </g>
  </g>
</svg>
