<?xml version="1.0" encoding="UTF-8" standalone="no"?>
<!-- Created with Inkscape (http://www.inkscape.org/) -->

<svg
   xmlns:dc="http://purl.org/dc/elements/1.1/"
   xmlns:cc="http://creativecommons.org/ns#"
   xmlns:rdf="http://www.w3.org/1999/02/22-rdf-syntax-ns#"
   xmlns:svg="http://www.w3.org/2000/svg"
   xmlns="http://www.w3.org/2000/svg"
   xmlns:sodipodi="http://sodipodi.sourceforge.net/DTD/sodipodi-0.dtd"
   xmlns:inkscape="http://www.inkscape.org/namespaces/inkscape"
   width="50"
   height="75"
   viewBox="0 0 49.999997 75.000004"
   id="svg4208"
   version="1.1"
   inkscape:version="0.91 r13725"
   sodipodi:docname="peasent.svg">
  <defs
     id="defs4210" />
  <sodipodi:namedview
     id="base"
     pagecolor="#ffffff"
     bordercolor="#666666"
     borderopacity="1.0"
     inkscape:pageopacity="0.0"
     inkscape:pageshadow="2"
     inkscape:zoom="1.836326"
     inkscape:cx="25"
     inkscape:cy="132.87401"
     inkscape:document-units="px"
     inkscape:current-layer="layer1"
     showgrid="true"
     inkscape:window-width="1280"
     inkscape:window-height="657"
     inkscape:window-x="-8"
     inkscape:window-y="-8"
     inkscape:window-maximized="1"
     units="px">
    <inkscape:grid
       type="xygrid"
       id="grid4760" />
  </sodipodi:namedview>
  <metadata
     id="metadata4213">
    <rdf:RDF>
      <cc:Work
         rdf:about="">
        <dc:format>image/svg+xml</dc:format>
        <dc:type
           rdf:resource="http://purl.org/dc/dcmitype/StillImage" />
        <dc:title></dc:title>
      </cc:Work>
    </rdf:RDF>
  </metadata>
  <g
     inkscape:label="Layer 1"
     inkscape:groupmode="layer"
     id="layer1"
     transform="translate(0,-977.36216)">
    <g
       id="g3411"
       transform="translate(-43.946274,174.83028)">
      <rect
         y="822.1604"
         x="49.845158"
         height="10"
         width="40"
         id="rect4762"
         style="fill:#efd0cf;fill-opacity:1;stroke:none" />
      <rect
         y="832.1604"
         x="54.845158"
         height="5"
         width="30"
         id="rect4764"
         style="fill:#efd0cf;fill-opacity:1;stroke:none" />
      <rect
         y="822.1604"
         x="54.845158"
         height="5"
         width="5"
         id="rect4766"
         style="fill:#ffffff;fill-opacity:1;stroke:none" />
      <rect
         y="822.1604"
         x="79.845161"
         height="5"
         width="5"
         id="rect4768"
         style="fill:#ffffff;fill-opacity:1;stroke:none" />
      <rect
         y="822.1604"
         x="59.845158"
         height="5"
         width="5"
         id="rect4770"
         style="fill:#550000;fill-opacity:1;stroke:none" />
      <rect
         y="822.1604"
         x="74.845161"
         height="5"
         width="5"
         id="rect4772"
         style="fill:#550000;fill-opacity:1;stroke:none" />
      <rect
         y="817.1604"
         x="54.845158"
         height="5"
         width="5"
         id="rect4774"
         style="fill:#efd0cf;fill-opacity:1;stroke:none" />
      <rect
         y="817.1604"
         x="79.845161"
         height="5"
         width="5"
         id="rect4776"
         style="fill:#efd0cf;fill-opacity:1;stroke:none" />
      <rect
         y="817.1604"
         x="64.845161"
         height="5"
         width="10"
         id="rect4778"
         style="fill:#efd0cf;fill-opacity:1;stroke:none" />
      <rect
         y="812.1604"
         x="49.845158"
         height="10"
         width="5"
         id="rect4784"
         style="fill:#ff6600;fill-opacity:1;stroke:none" />
      <rect
         y="812.1604"
         x="54.845158"
         height="5"
         width="35"
         id="rect4786"
         style="fill:#ff6600;fill-opacity:1;stroke:none" />
      <rect
         y="817.1604"
         x="84.845161"
         height="5"
         width="5"
         id="rect4788"
         style="fill:#ff6600;fill-opacity:1;stroke:none" />
      <rect
         y="817.1604"
         x="59.845158"
         height="5"
         width="5"
         id="rect4790"
         style="fill:#ff6600;fill-opacity:1;stroke:none" />
      <rect
         y="817.1604"
         x="74.845161"
         height="5"
         width="5"
         id="rect4792"
         style="fill:#ff6600;fill-opacity:1;stroke:none" />
      <rect
         y="812.1604"
         x="59.845158"
         height="10"
         width="5"
         id="rect4794"
         style="fill:#ff6600;fill-opacity:1;stroke:none" />
      <rect
         y="812.1604"
         x="74.845161"
         height="10"
         width="5"
         id="rect4796"
         style="fill:#ff6600;fill-opacity:1;stroke:none" />
      <rect
         y="817.1604"
         x="84.845161"
         height="5"
         width="5"
         id="rect4798"
         style="fill:#ff6600;fill-opacity:1;stroke:none" />
      <rect
         y="812.1604"
         x="79.845161"
         height="5"
         width="5"
         id="rect4800"
         style="fill:#ff6600;fill-opacity:1;stroke:none" />
      <rect
         y="812.1604"
         x="54.845158"
         height="5"
         width="5"
         id="rect4802"
         style="fill:#ff6600;fill-opacity:1;stroke:none" />
      <rect
         y="832.1604"
         x="64.845161"
         height="5"
         width="10"
         id="rect4810"
         style="fill:#ff8080;fill-opacity:1;stroke:none" />
      <rect
         y="837.1604"
         x="64.845161"
         height="5"
         width="10"
         id="rect4812"
         style="fill:#efd0cf;fill-opacity:1;stroke:none" />
      <rect
         y="837.1604"
         x="64.845161"
         height="5"
         width="10"
         id="rect4814"
         style="fill:#efd0cf;fill-opacity:1;stroke:none" />
      <rect
         y="842.1604"
         x="59.845158"
         height="15"
         width="20"
         id="rect4816"
         style="fill:#efd0cf;fill-opacity:1;stroke:none" />
      <rect
         y="847.1604"
         x="79.845161"
         height="5"
         width="10"
         id="rect4818"
         style="fill:#efd0cf;fill-opacity:1;stroke:none" />
      <rect
         y="852.1604"
         x="84.845161"
         height="5"
         width="4.9492373"
         id="rect4820"
         style="fill:#efd0cf;fill-opacity:1;stroke:none" />
      <rect
         y="847.1604"
         x="49.845158"
         height="5"
         width="10"
         id="rect4822"
         style="fill:#efd0cf;fill-opacity:1;stroke:none" />
      <rect
         y="852.1604"
         x="49.643391"
         height="5"
         width="5.2017756"
         id="rect4824"
         style="fill:#efd0cf;fill-opacity:1;stroke:none" />
      <rect
         y="857.1604"
         x="59.845158"
         height="5.2017756"
         width="20"
         id="rect4830"
         style="fill:#efd0cf;fill-opacity:1;stroke:none" />
      <rect
         y="862.10962"
         x="59.845158"
         height="10.050763"
         width="5"
         id="rect4832"
         style="fill:#efd0cf;fill-opacity:1;stroke:none" />
      <rect
         y="862.36218"
         x="74.845161"
         height="9.7982244"
         width="5"
         id="rect4834"
         style="fill:#efd0cf;fill-opacity:1;stroke:none" />
      <rect
         y="852.1604"
         x="59.845158"
         height="15"
         width="20"
         id="rect4838"
         style="fill:#666666;fill-opacity:1;stroke:none" />
      <rect
         y="862.1604"
         x="79.845161"
         height="5"
         width="5"
         id="rect4840"
         style="fill:#666666;fill-opacity:1;stroke:none" />
      <rect
         y="862.1604"
         x="54.845158"
         height="5"
         width="5"
         id="rect4842"
         style="fill:#666666;fill-opacity:1;stroke:none" />
      <rect
         y="857.1604"
         x="54.845158"
         height="5"
         width="5"
         id="rect4846"
         style="fill:#666666;fill-opacity:1;stroke:none" />
      <rect
         y="857.1604"
         x="79.845161"
         height="5"
         width="5"
         id="rect4848"
         style="fill:#666666;fill-opacity:1;stroke:none" />
      <rect
         y="847.1604"
         x="59.845158"
         height="5"
         width="20"
         id="rect4850"
         style="fill:#666666;fill-opacity:1;stroke:none" />
      <rect
         y="842.1604"
         x="59.845158"
         height="5"
         width="20"
         id="rect4852"
         style="fill:#666666;fill-opacity:1;stroke:none" />
      <rect
         y="842.1604"
         x="64.845161"
         height="5"
         width="10"
         id="rect4854"
         style="fill:#b3b3b3;fill-opacity:1;stroke:none" />
      <rect
         y="847.1604"
         x="79.845161"
         height="5"
         width="10"
         id="rect4856"
         style="fill:#b3b3b3;fill-opacity:1;stroke:none" />
      <rect
         y="847.1604"
         x="49.845158"
         height="5"
         width="10"
         id="rect4858"
         style="fill:#b3b3b3;fill-opacity:1;stroke:none" />
      <rect
         y="867.1604"
         x="59.845158"
         height="10"
         width="5"
         id="rect4860"
         style="fill:#800000;fill-opacity:1;stroke:none" />
      <rect
         y="872.1604"
         x="54.845158"
         height="5"
         width="10"
         id="rect4862"
         style="fill:#800000;fill-opacity:1;stroke:none" />
      <rect
         y="867.1604"
         x="74.845161"
         height="10"
         width="5"
         id="rect4864"
         style="fill:#800000;fill-opacity:1;stroke:none" />
      <rect
         y="872.1604"
         x="74.845161"
         height="5"
         width="10"
         id="rect4866"
         style="fill:#800000;fill-opacity:1;stroke:none" />
      <rect
         y="852.1604"
         x="54.845158"
         height="5"
         width="5"
         id="rect4868"
         style="fill:#b3b3b3;fill-opacity:1;stroke:none" />
      <rect
         y="852.1604"
         x="79.845161"
         height="5"
         width="5"
         id="rect4870"
         style="fill:#b3b3b3;fill-opacity:1;stroke:none" />
      <rect
         y="842.1604"
         x="54.845158"
         height="5"
         width="5"
         id="rect4872"
         style="fill:#333333;fill-opacity:1;stroke:none" />
      <rect
         y="842.1604"
         x="79.845161"
         height="5"
         width="5"
         id="rect4874"
         style="fill:#333333;fill-opacity:1;stroke:none" />
      <rect
         y="852.1604"
         x="49.845158"
         height="5"
         width="5"
         id="rect4876"
         style="fill:#b3b3b3;fill-opacity:1;stroke:none" />
      <rect
         y="852.1604"
         x="84.845161"
         height="5"
         width="5"
         id="rect4878"
         style="fill:#b3b3b3;fill-opacity:1;stroke:none" />
      <rect
         y="857.1604"
         x="49.845158"
         height="5"
         width="5"
         id="rect4880"
         style="fill:#efd0cf;fill-opacity:1;stroke:none" />
      <rect
         y="857.1604"
         x="84.845161"
         height="5"
         width="5"
         id="rect4882"
         style="fill:#efd0cf;fill-opacity:1;stroke:none" />
      <path
         inkscape:connector-curvature="0"
         id="path7446"
         d="m 49.847611,852.24172 0,-4.91535 2.3798,-0.0723 c 1.30889,-0.0398 3.58173,-0.0366 5.05076,0.007 l 2.67097,0.0794 0,4.90825 0,4.90825 -5.05076,0 -5.05077,0 0,-4.91535 z m 8.64943,-0.0691 c -0.7292,-0.051 -1.92244,-0.051 -2.65165,0 -0.7292,0.051 -0.13258,0.0928 1.32583,0.0928 1.45841,0 2.05503,-0.0417 1.32582,-0.0928 z"
         style="fill:#e6e6e6;fill-opacity:1;stroke:none" />
      <path
         inkscape:connector-curvature="0"
         id="path7448"
         d="m 84.950411,854.63168 0,-2.52538 -2.52538,0 -2.52538,0 0,-2.39911 0,-2.39911 4.92449,0 4.9245,0 0,4.92449 0,4.9245 -2.39911,0 -2.39912,0 0,-2.52539 z"
         style="fill:#e6e6e6;fill-opacity:1;stroke:none" />
      <path
         inkscape:connector-curvature="0"
         id="path7450"
         d="m 64.999901,844.66166 0,-2.39389 -5.1139,-0.0739 c -2.81264,-0.0406 0.51139,-0.076 7.38674,-0.0786 6.87535,-0.003 11.39263,0.0324 10.03839,0.0778 l -2.46224,0.0826 0,2.38996 0,2.38997 -4.9245,0 -4.92449,0 0,-2.39388 z"
         style="fill:#e6e6e6;fill-opacity:1;stroke:none" />
      <path
         inkscape:connector-curvature="0"
         id="path7452"
         d="m 79.899651,854.75795 0,-2.39911 2.39911,0 2.39912,0 0,2.39911 0,2.39912 -2.39912,0 -2.39911,0 0,-2.39912 z"
         style="fill:#e6e6e6;fill-opacity:1;stroke:none" />
      <path
         inkscape:connector-curvature="0"
         id="path7454"
         d="m 59.949141,859.68245 0,-7.32361 9.84899,0 9.84898,0 0,7.32361 0,7.3236 -9.84898,0 -9.84899,0 0,-7.3236 z"
         style="fill:#803300;fill-opacity:1;stroke:none" />
      <path
         inkscape:connector-curvature="0"
         id="path7456"
         d="m 59.949141,849.70719 0,-2.39911 9.84899,0 9.84898,0 0,2.39911 0,2.39911 -9.84898,0 -9.84899,0 0,-2.39911 z"
         style="fill:#803300;fill-opacity:1;stroke:none" />
      <path
         inkscape:connector-curvature="0"
         id="path7458"
         d="m 54.898381,864.60694 0,-2.39911 2.39911,0 2.39911,0 0,2.39911 0,2.39911 -2.39911,0 -2.39911,0 0,-2.39911 z"
         style="fill:#803300;fill-opacity:1;stroke:none" />
      <path
         inkscape:connector-curvature="0"
         id="path7460"
         d="m 79.899651,864.60694 0,-2.39911 2.39911,0 2.39912,0 0,2.39911 0,2.39911 -2.39912,0 -2.39911,0 0,-2.39911 z"
         style="fill:#803300;fill-opacity:1;stroke:none" />
      <path
         inkscape:connector-curvature="0"
         id="path7462"
         d="m 79.899651,859.55618 0,-2.39911 2.39911,0 2.39912,0 0,2.39911 0,2.39911 -2.39912,0 -2.39911,0 0,-2.39911 z"
         style="fill:#803300;fill-opacity:1;stroke:none" />
      <path
         inkscape:connector-curvature="0"
         id="path7464"
         d="m 54.898381,859.55618 0,-2.39911 2.39911,0 2.39911,0 0,2.39911 0,2.39911 -2.39911,0 -2.39911,0 0,-2.39911 z"
         style="fill:#803300;fill-opacity:1;stroke:none" />
      <path
         inkscape:connector-curvature="0"
         id="path7466"
         d="m 59.696601,844.65643 0,-2.39911 2.52538,0 2.52538,0 0,2.39911 0,2.39911 -2.52538,0 -2.52538,0 0,-2.39911 z"
         style="fill:#803300;fill-opacity:1;stroke:none" />
      <path
         inkscape:connector-curvature="0"
         id="path7468"
         d="m 74.848891,844.65643 0,-2.39911 2.52538,0 2.52538,0 0,2.39911 0,2.39911 -2.52538,0 -2.52538,0 0,-2.39911 z"
         style="fill:#803300;fill-opacity:1;stroke:none" />
      <path
         inkscape:connector-curvature="0"
         id="path7470"
         d="m 79.899651,844.65643 0,-2.39911 2.39911,0 2.39912,0 0,2.39911 0,2.39911 -2.39912,0 -2.39911,0 0,-2.39911 z"
         style="fill:#803300;fill-opacity:1;stroke:none" />
      <path
         inkscape:connector-curvature="0"
         id="path7472"
         d="m 54.898381,844.65643 0,-2.39911 2.39911,0 2.39911,0 0,2.39911 0,2.39911 -2.39911,0 -2.39911,0 0,-2.39911 z"
         style="fill:#803300;fill-opacity:1;stroke:none" />
      <path
         inkscape:connector-curvature="0"
         id="path7474"
         d="m 54.898381,874.70847 0,-2.39912 2.52538,0 2.52538,0 0,-2.52538 0,-2.52538 2.39911,0 2.39911,0 0,4.92449 0,4.9245 -4.92449,0 -4.92449,0 0,-2.39911 z"
         style="fill:#550000;fill-opacity:1;stroke:none" />
      <path
         inkscape:connector-curvature="0"
         id="path7476"
         d="m 74.848891,872.18308 0,-4.92449 2.39911,0 2.39911,0 0,2.52538 0,2.52538 2.52538,0 2.52539,0 0,2.39912 0,2.39911 -4.9245,0 -4.92449,0 0,-4.9245 z"
         style="fill:#550000;fill-opacity:1;stroke:none" />
      <rect
         y="807.1604"
         x="54.845158"
         height="5"
         width="30"
         id="rect7478"
         style="fill:#550000;fill-opacity:1;stroke:none" />
      <rect
         y="812.1604"
         x="84.845161"
         height="10"
         width="5"
         id="rect7480"
         style="fill:#550000;fill-opacity:1;stroke:none" />
      <rect
         y="817.1604"
         x="89.845161"
         height="10"
         width="5"
         id="rect7482"
         style="fill:#550000;fill-opacity:1;stroke:none" />
      <rect
         y="817.1604"
         x="44.845158"
         height="10"
         width="5"
         id="rect7484"
         style="fill:#550000;fill-opacity:1;stroke:none" />
      <rect
         y="812.1604"
         x="49.845158"
         height="10"
         width="5"
         id="rect7486"
         style="fill:#550000;fill-opacity:1;stroke:none" />
      <rect
         y="812.1604"
         x="54.845158"
         height="5"
         width="30"
         id="rect7488"
         style="fill:#550000;fill-opacity:1;stroke:none" />
      <rect
         y="807.1604"
         x="49.845158"
         height="5"
         width="40"
         id="rect7492"
         style="fill:#550000;fill-opacity:1;stroke:none" />
      <rect
         y="812.1604"
         x="44.845158"
         height="5"
         width="50"
         id="rect7494"
         style="fill:#550000;fill-opacity:1;stroke:none" />
      <rect
         y="802.1604"
         x="54.845158"
         height="5"
         width="30"
         id="rect7496"
         style="fill:#550000;fill-opacity:1;stroke:none" />
    </g>
  </g>
</svg>
